<svg id="Layer_1" data-name="Layer 1" xmlns="http://www.w3.org/2000/svg" viewBox="0 0 678.07 556.69"><defs><style>.cls-1{fill:#e6e6e6;stroke-miterlimit:10;}.cls-1,.cls-2{stroke:#000;stroke-width:3px;}.cls-2{fill:#f2f2f2;stroke-linecap:round;stroke-miterlimit:7;}</style></defs><title>upload</title><path class="cls-1" d="M536.68,346.37a110.71,110.71,0,0,0-75.23-154.7c.08-.94.13-1.88.13-2.84a33.54,33.54,0,0,0-53.44-27,110.63,110.63,0,0,0-192.53,64.06c-40.1,9.55-70.16,45.79-70.16,88.7V318c0,50.14,41,91.17,91.17,91.17h185a111.31,111.31,0,0,0,29.72,0A91.53,91.53,0,0,0,536.68,346.37Z"/><path class="cls-2" d="M343.57,159.48l-72,65.19a3.82,3.82,0,0,0,2.57,6.66h31.75a3.82,3.82,0,0,1,3.82,3.82v126.5a3.82,3.82,0,0,0,3.82,3.82h62.89a3.82,3.82,0,0,0,3.82-3.82V235.15a3.82,3.82,0,0,1,3.82-3.82h34.25a3.82,3.82,0,0,0,2.56-6.66L348.7,159.48A3.82,3.82,0,0,0,343.57,159.48Z"/></svg>