<svg width="128" height="128" viewBox="0 0 128 128" fill="none" xmlns="http://www.w3.org/2000/svg">
<path d="M63.7119 125.924C97.8405 125.924 125.507 98.2576 125.507 64.1289C125.507 30.0003 97.8405 2.33354 63.7119 2.33354C29.5832 2.33354 1.9165 30.0003 1.9165 64.1289C1.9165 98.2576 29.5832 125.924 63.7119 125.924Z" fill="white"/>
<path fill-rule="evenodd" clip-rule="evenodd" d="M77.971 48.7797C77.7702 47.5108 77.5804 46.447 77.4017 45.5883C77.2729 44.9028 77.0815 44.2307 76.8298 43.5803C76.6281 43.1054 76.3026 42.8667 75.8558 42.8667C75.4958 42.8667 75.0388 42.8896 74.4784 42.9343C73.918 42.979 73.3027 43.0262 72.6312 43.0709L70.6168 43.2075C69.9445 43.2535 69.3398 43.276 68.8028 43.2752H46.3712C45.7891 43.2752 45.1623 43.2526 44.4908 43.2075C43.8194 43.1624 43.159 43.1147 42.5096 43.0645C41.8603 43.0194 41.2441 42.9739 40.6612 42.9279C40.0782 42.882 39.6306 42.8599 39.3182 42.8616C38.8706 42.8616 38.5459 43.0884 38.3442 43.542C38.0907 44.1675 37.8995 44.8166 37.7736 45.4798C37.5949 46.3206 37.3936 47.375 37.1698 48.6431C36.946 49.9111 36.6102 51.3625 36.1626 52.9974C36.5301 53.2733 36.9798 53.4172 37.4392 53.4059C37.6369 53.4017 37.8315 53.3551 38.0098 53.2693C38.1107 53.2232 38.2013 53.1572 38.2763 53.0754C38.3513 52.9937 38.4091 52.8977 38.4464 52.7931C38.9834 51.6604 39.4982 50.6626 39.991 49.7996C40.4368 48.9945 41.0286 48.2794 41.736 47.6908C42.4419 47.1287 43.2525 46.7126 44.1206 46.4665C45.0381 46.1942 46.1687 46.058 47.5124 46.058H54.4314V82.3888C54.4314 83.4321 53.9837 84.1555 53.0884 84.5589C52.1931 84.9623 50.7379 85.3027 48.7226 85.5801C48.275 85.672 48.0511 86.0346 48.0511 86.6678C48.0584 87.0567 48.1033 87.444 48.1852 87.8243C49.6175 87.7324 51.1493 87.6528 52.7808 87.5856C54.4122 87.5184 56.013 87.4843 57.5832 87.4835C59.1942 87.4835 60.7954 87.5175 62.3868 87.5856C63.9783 87.6537 65.4901 87.7341 66.9224 87.8269C67.0035 87.449 67.0488 87.0643 67.0578 86.678C67.0578 85.9529 66.8118 85.5903 66.3199 85.5903C64.3047 85.3631 62.8719 85.0342 62.0218 84.6036C61.1716 84.1729 60.746 83.4359 60.7452 82.3926V46.058H67.6577C69.0015 46.058 70.1321 46.1942 71.0495 46.4665C71.9099 46.7084 72.7109 47.1257 73.4022 47.692C74.093 48.2883 74.6726 49.0023 75.1141 49.8009C75.661 50.7708 76.1549 51.7697 76.5936 52.7931C76.6335 52.9014 76.6961 52.9998 76.7771 53.0819C76.8581 53.164 76.9557 53.2279 77.0634 53.2693C77.2539 53.3535 77.459 53.3999 77.6672 53.4059C77.9121 53.4131 78.1556 53.3669 78.3808 53.2706C78.5825 53.1799 78.7931 53.0893 79.0191 52.9974C78.5644 51.6198 78.2141 50.2099 77.971 48.7797Z" fill="#3590D6"/>
<path fill-rule="evenodd" clip-rule="evenodd" d="M90.2056 65.1948C90.0898 64.4698 89.9809 63.8609 89.8788 63.3681C89.8048 62.9759 89.695 62.5913 89.5507 62.2192C89.435 61.9477 89.2486 61.812 88.9916 61.812C88.7848 61.812 88.5218 61.8248 88.2001 61.8503C87.8784 61.8758 87.5248 61.9026 87.1393 61.9282L85.9815 62.006C85.596 62.0324 85.2487 62.0452 84.9398 62.0443H72.0556C71.7211 62.0443 71.3611 62.0316 70.9756 62.006L69.8382 61.9282C69.4646 61.9026 69.111 61.8767 68.7774 61.8503C68.4438 61.8239 68.1885 61.8111 68.0114 61.812C67.8899 61.8093 67.7705 61.8448 67.6702 61.9135C67.5699 61.9822 67.4937 62.0806 67.4523 62.195C67.3066 62.5526 67.1967 62.9237 67.1242 63.303C67.0213 63.7838 66.9055 64.3864 66.777 65.1106C66.6485 65.8348 66.4557 66.6642 66.1987 67.5986C66.4099 67.7563 66.668 67.8386 66.9315 67.8322C67.0451 67.8299 67.157 67.8033 67.2595 67.7543C67.3182 67.7285 67.3711 67.6911 67.4149 67.6444C67.4588 67.5977 67.4928 67.5426 67.5149 67.4824C67.8238 66.8348 68.1216 66.2646 68.4084 65.7718C68.6651 65.3113 69.0054 64.9026 69.4118 64.5668C69.8177 64.2454 70.2832 64.0076 70.7816 63.8672C71.4166 63.6979 72.0725 63.6192 72.7296 63.6336H76.7035V84.3993C76.7035 84.995 76.4482 85.4095 75.9376 85.6426C75.4269 85.8758 74.5819 86.0703 73.4023 86.226C73.147 86.2788 73.0194 86.486 73.0194 86.8477C73.0238 87.0701 73.0499 87.2916 73.0972 87.509C73.9202 87.4562 74.801 87.4107 75.7397 87.3724C76.6784 87.3341 77.5979 87.3145 78.4983 87.3136C79.4242 87.3136 80.3438 87.3332 81.257 87.3724C82.1701 87.4115 83.0377 87.4571 83.8598 87.509C83.9063 87.2915 83.9319 87.0701 83.9364 86.8477C83.9364 86.4333 83.7952 86.226 83.5126 86.226C82.3552 86.0967 81.5323 85.909 81.0438 85.6631C80.5553 85.4171 80.311 84.9959 80.311 84.3993V63.64H84.2849C84.942 63.6255 85.5979 63.7042 86.233 63.8736C86.7265 64.0114 87.1863 64.2496 87.5836 64.5732C87.9799 64.9136 88.3127 65.3216 88.5665 65.7782C88.8803 66.3326 89.1637 66.9036 89.4154 67.4888C89.4385 67.5508 89.4746 67.6072 89.5213 67.6541C89.5679 67.701 89.6241 67.7373 89.686 67.7607C89.7957 67.8088 89.9136 67.8353 90.0333 67.8386C90.1722 67.8417 90.3101 67.8152 90.4379 67.7607C90.5528 67.7084 90.6754 67.6573 90.8043 67.605C90.5443 66.8178 90.3442 66.0122 90.2056 65.1948Z" fill="#3590D6"/>
</svg>
