<svg width="128" height="128" viewBox="0 0 128 128" fill="none" xmlns="http://www.w3.org/2000/svg">
<path d="M63.5201 127.04C97.7176 127.04 125.44 99.3175 125.44 65.12C125.44 30.9225 97.7176 3.20001 63.5201 3.20001C29.3226 3.20001 1.6001 30.9225 1.6001 65.12C1.6001 99.3175 29.3226 127.04 63.5201 127.04Z" fill="white"/>
<path opacity="0.38" d="M47.2002 86.08L83.6802 42.56L107.84 87.68L94.0802 103.04L47.2002 86.08Z" fill="url(#paint0_linear)"/>
<path d="M90.8801 47.68L91.5201 96.16L40.6401 95.68V32.48H76.3201" fill="white"/>
<path d="M87.6802 97.28H43.6802C40.9602 97.28 38.7202 95.2 38.7202 92.32V78.08C38.7202 77.6 39.2002 77.12 39.6802 77.12C40.1602 77.12 40.6402 77.6 40.6402 78.08V92.32C40.6402 93.92 41.9202 95.36 43.6802 95.36H87.6802C87.6802 95.36 90.7202 94.08 90.7202 92.32V48.16C90.7202 47.68 91.0402 47.2 91.5202 47.2H91.6802C92.3202 47.2 92.6402 47.68 92.6402 48.16V92.32C92.6402 95.04 87.6802 97.28 87.6802 97.28Z" fill="#1DB4FB"/>
<path d="M75.8398 32.64L76.3198 47.2L91.5199 47.68L75.8398 32.64Z" fill="#EAF473"/>
<path d="M39.68 78.4C39.2 78.4 38.72 78.08 38.72 77.6V77.44V35.68C38.56 33.12 40.8 30.72 43.36 30.72C43.52 30.72 43.52 30.72 43.52 30.72H75.36C75.84 30.56 76.32 30.88 76.32 31.36V31.52C76.32 32.16 75.84 32.48 75.36 32.64H43.68C42.08 32.64 40.64 33.92 40.64 35.52C40.64 35.52 40.64 35.52 40.64 35.68V77.44C40.8 77.92 40.32 78.4 39.68 78.4Z" fill="#1DB4FB"/>
<path d="M91.68 48.96H75.6801C75.0401 49.12 74.7201 48.64 74.5601 48V32.16C74.5601 31.52 75.0401 31.2 75.6801 31.2C76.1601 31.2 76.6401 31.52 76.6401 32V32.16V47.04H91.68C92.32 47.04 92.64 47.52 92.64 48.16C92.64 48.64 92.32 48.96 91.68 48.96C91.84 49.12 91.68 49.12 91.68 48.96Z" fill="#1DB4FB"/>
<path d="M91.6798 49.12C91.5198 49.12 91.1998 48.96 91.0398 48.8L75.0398 32.48C74.7198 32.16 74.7198 31.36 75.0398 31.04C75.3598 30.72 76.1598 30.72 76.4798 31.04L92.4798 47.36C92.7998 47.68 92.7998 48.48 92.4798 48.8C92.1598 48.96 91.9998 49.12 91.6798 49.12Z" fill="#1DB4FB"/>
<path d="M90.5602 101.92C94.8901 101.92 98.4002 98.4099 98.4002 94.08C98.4002 89.7501 94.8901 86.24 90.5602 86.24C86.2303 86.24 82.7202 89.7501 82.7202 94.08C82.7202 98.4099 86.2303 101.92 90.5602 101.92Z" fill="#1DB4FB" stroke="#1DB4FB" stroke-width="0.75" stroke-linecap="round" stroke-linejoin="round"/>
<path d="M90.4003 96.16C91.5491 96.16 92.4803 95.2287 92.4803 94.08C92.4803 92.9312 91.5491 92 90.4003 92C89.2516 92 88.3203 92.9312 88.3203 94.08C88.3203 95.2287 89.2516 96.16 90.4003 96.16Z" stroke="#EAF473" stroke-width="0.5" stroke-linecap="round" stroke-linejoin="round"/>
<path d="M95.0396 94.4V93.44L93.9196 93.28C93.7596 92.8 93.7596 92.32 93.2796 92L93.9196 91.04L93.2796 90.4L92.3196 91.04C91.9996 90.88 91.5196 90.56 91.0396 90.56L90.8796 89.44H90.0796L89.9196 90.56C89.4396 90.72 88.9596 90.72 88.6396 91.04L87.6796 90.4L87.0396 91.04L87.6796 92C87.5196 92.32 87.1996 92.8 87.0396 93.28L86.0796 93.44V94.24L87.1996 94.4C87.3596 94.88 87.3596 95.36 87.6796 95.68L87.0396 96.64L87.6796 97.28L88.6396 96.64C88.9596 96.8 89.4396 97.12 89.9196 97.28L90.0796 98.4H90.8796L91.0396 97.28C91.5196 97.12 91.9996 97.12 92.3196 96.64L93.2796 97.28L93.9196 96.64L93.2796 95.68C93.4396 95.36 93.7596 94.88 93.7596 94.4H95.0396Z" stroke="#EAF473" stroke-width="0.5" stroke-linecap="round" stroke-linejoin="round"/>
<path d="M50.8799 61.92L53.1199 64.32L56.4799 60.32" stroke="#EAF473" stroke-miterlimit="10" stroke-linecap="round" stroke-linejoin="round"/>
<path d="M60.3203 62.56H79.3603" stroke="#1DB4FB" stroke-width="1.25" stroke-miterlimit="10" stroke-linecap="round" stroke-linejoin="round"/>
<path d="M51.2002 73.12L53.4402 75.52L56.8002 71.36" stroke="#EAF473" stroke-miterlimit="10" stroke-linecap="round" stroke-linejoin="round"/>
<path d="M60.6401 73.6H79.6801" stroke="#1DB4FB" stroke-width="1.25" stroke-miterlimit="10" stroke-linecap="round" stroke-linejoin="round"/>
<path d="M50.5601 84.16L52.8001 86.56L56.3201 82.4" stroke="#EAF473" stroke-miterlimit="10" stroke-linecap="round" stroke-linejoin="round"/>
<path d="M60.1602 84.64H79.0402" stroke="#1DB4FB" stroke-width="1.25" stroke-miterlimit="10" stroke-linecap="round" stroke-linejoin="round"/>
<defs>
<linearGradient id="paint0_linear" x1="59.3092" y1="59.4272" x2="144.825" y2="126.522" gradientUnits="userSpaceOnUse">
<stop stop-color="white" stop-opacity="0.5"/>
<stop offset="0.00827113" stop-color="#F2F2F2" stop-opacity="0.4912"/>
<stop offset="0.0429871" stop-color="#C0C0C0" stop-opacity="0.4543"/>
<stop offset="0.0802598" stop-color="#929292" stop-opacity="0.4146"/>
<stop offset="0.1193" stop-color="#6B6B6B" stop-opacity="0.3731"/>
<stop offset="0.1605" stop-color="#4A4A4A" stop-opacity="0.3293"/>
<stop offset="0.2044" stop-color="#2F2F2F" stop-opacity="0.2826"/>
<stop offset="0.2521" stop-color="#1A1A1A" stop-opacity="0.2318"/>
<stop offset="0.3055" stop-color="#0B0B0B" stop-opacity="0.175"/>
<stop offset="0.3691" stop-color="#030303" stop-opacity="0.1073"/>
<stop offset="0.47" stop-opacity="0"/>
</linearGradient>
</defs>
</svg>
