<?xml version="1.0" encoding="UTF-8"?>
<svg xmlns="http://www.w3.org/2000/svg" width="128" height="128" viewBox="0 0 128 128" fill="none"><path d="M63.7119 125.889C97.8405 125.889 125.507 98.2219 125.507 64.0932C125.507 29.9646 97.8405 2.29785 63.7119 2.29785C29.5832 2.29785 1.9165 29.9646 1.9165 64.0932C1.9165 98.2219 29.5832 125.889 63.7119 125.889Z" fill="white"/><path d="M49.3259 79.9123C48.0463 79.4336 46.8801 78.6947 45.9009 77.7421C44.8962 76.7821 44.0975 75.6276 43.5533 74.3491C42.9855 73.001 42.7009 71.5506 42.7171 70.0879V42.111C42.6968 41.1552 43.0551 40.2301 43.7141 39.5375C44.0246 39.2015 44.4034 38.9359 44.8251 38.7584C45.2467 38.581 45.7014 38.4958 46.1587 38.5086C47.1291 38.4937 48.0658 38.8636 48.7642 39.5375C49.1125 39.8691 49.3893 40.2685 49.5774 40.7111C49.7656 41.1537 49.8611 41.6301 49.8582 42.111V70.093C49.8582 71.23 50.1692 72.104 50.7913 72.7151C51.4134 73.3261 52.2921 73.6402 53.4274 73.6572H53.5883C54.0595 73.6463 54.528 73.7319 54.9649 73.9089C55.4017 74.0858 55.7978 74.3503 56.1286 74.6861C56.7933 75.3507 57.1256 76.1869 57.1256 77.1945C57.1256 78.2234 56.7933 79.0595 56.1286 79.7029C55.464 80.3463 54.6172 80.6714 53.5883 80.6782C52.1324 80.6872 50.6875 80.4276 49.3259 79.9123Z" fill="#00E4BA"/><path d="M62.1439 80.4012C61.7107 80.2303 61.3168 79.9732 60.986 79.6455C60.2354 78.9596 59.8601 78.1341 59.8601 77.169V64.8489C59.8488 62.8295 60.243 60.8283 61.0192 58.964C61.7774 57.1404 62.8805 55.4803 64.268 54.0748C65.6275 52.6683 67.2582 51.5522 69.0615 50.7941C70.9145 50.016 72.9061 49.6221 74.9158 49.6362C77.9263 49.6241 80.8727 50.505 83.3825 52.1676C85.8922 53.8303 87.8525 56.1999 89.0153 58.9768C89.7989 60.8349 90.1984 62.8324 90.1897 64.8489V77.1677C90.2014 77.6267 90.119 78.0832 89.9476 78.5091C89.7761 78.9351 89.5192 79.3214 89.1928 79.6442C88.8668 79.9797 88.4753 80.2446 88.0427 80.4224C87.6101 80.6003 87.1456 80.6874 86.6779 80.6782C86.2066 80.6896 85.738 80.6041 85.3011 80.4271C84.8642 80.2502 84.4682 79.9854 84.1376 79.6493C83.7861 79.3409 83.5061 78.9596 83.3171 78.5319C83.1282 78.1041 83.0348 77.6403 83.0436 77.1728V64.8821C83.0262 63.8078 82.7967 62.7476 82.3683 61.7622C81.9533 60.7965 81.3521 59.922 80.599 59.1887C79.8534 58.4416 78.9698 57.8463 77.9974 57.436C77.0177 57.0243 75.9661 56.8109 74.9034 56.808C73.8407 56.8052 72.788 57.013 71.8061 57.4194C70.8625 57.8195 70.0051 58.3982 69.2811 59.1236C68.5621 59.8683 67.998 60.7482 67.6215 61.7124C67.2263 62.7106 67.0261 63.7754 67.0318 64.8489V77.1677C67.0435 77.6267 66.9611 78.0832 66.7896 78.5091C66.6181 78.9351 66.3612 79.3214 66.0348 79.6442C65.712 79.9667 65.3296 80.2233 64.9089 80.3999C64.4822 80.5835 64.0227 80.6782 63.5583 80.6782C63.0733 80.6787 62.5929 80.5846 62.1439 80.4012Z" fill="#00E4BA"/></svg>