<?xml version="1.0" encoding="utf-8"?>
<!-- Generator: Adobe Illustrator 21.1.0, SVG Export Plug-In . SVG Version: 6.00 Build 0)  -->
<svg version="1.1" id="Calque_1" xmlns="http://www.w3.org/2000/svg" xmlns:xlink="http://www.w3.org/1999/xlink" x="0px" y="0px"
	 viewBox="0 0 128 128" style="enable-background:new 0 0 128 128;" xml:space="preserve">
<style type="text/css">
	.st0{fill:#FFFFFF;}
	.st1{fill:#35BCF2;}
	.st2{fill:#1E5EAB;}
</style>
<path class="st0" d="M63.7,125.9c34.1,0,61.8-27.7,61.8-61.8c0-34.1-27.7-61.8-61.8-61.8C29.6,2.3,1.9,30,1.9,64.1
	C1.9,98.2,29.6,125.9,63.7,125.9z"/>
<path class="st1" d="M42.4,78.9l-0.4-0.1c-2.6-0.8-4.1-3.6-3.3-6.2L45.5,51c0.8-2.6,3.6-4.1,6.2-3.3l0.4,0.1
	c2.6,0.8,4.1,3.6,3.3,6.2l-6.8,21.6C47.9,78.3,45,79.8,42.4,78.9z"/>
<path class="st1" d="M47.1,48.8l0.3-0.2c2.2-1.7,5.3-1.3,7,0.9l13.9,17.9c1.7,2.2,1.3,5.3-0.9,7l-0.3,0.2c-2.2,1.7-5.3,1.3-7-0.9
	L46.2,55.8C44.5,53.6,44.9,50.5,47.1,48.8z"/>
<path class="st1" d="M80.9,48.8l-0.3-0.2c-2.2-1.7-5.3-1.3-7,0.9L59.8,67.4c-1.7,2.2-1.3,5.3,0.9,7l0.3,0.2c2.2,1.7,5.3,1.3,7-0.9
	l13.9-17.9C83.5,53.6,83.1,50.5,80.9,48.8z"/>
<path class="st1" d="M85.6,78.9l0.4-0.1c2.6-0.8,4.1-3.6,3.3-6.2L82.5,51c-0.8-2.6-3.6-4.1-6.2-3.3l-0.4,0.1
	c-2.6,0.8-4.1,3.6-3.3,6.2l6.8,21.6C80.1,78.3,83,79.8,85.6,78.9z"/>
<path class="st2" d="M47.3,48.7c-2.3,1.7-2.7,5-0.9,7.3l6.1,7.8l3-9.5c0.4-1.4,0.2-2.9-0.5-4.1l-0.4-0.5
	C52.8,47.4,49.5,47,47.3,48.7z"/>
<path class="st2" d="M82.5,51c0-0.1-0.1-0.2-0.1-0.2c0,0,0,0,0,0c-0.3-0.8-0.9-1.5-1.6-2h0c-2.3-1.7-5.5-1.3-7.3,0.9L73,50.3
	c-0.6,1.2-0.8,2.6-0.4,3.9l3,9.6l6.1-7.9c1-1.3,1.3-3,0.9-4.6l-0.1-0.2C82.5,51.1,82.5,51,82.5,51z"/>
<path class="st2" d="M68.1,67.2L64,61.9l-4.1,5.3c-1.4,1.8-1.4,4.2-0.3,5.9l0.3,0.4c1,1.2,2.4,1.9,3.9,2c0.1,0,0.1,0,0.2,0
	c0.1,0,0.1,0,0.2,0c1.5-0.1,2.9-0.7,3.9-2l0.3-0.4C69.5,71.4,69.5,69,68.1,67.2z"/>
</svg>
