<?xml version="1.0" encoding="UTF-8"?>
<svg xmlns="http://www.w3.org/2000/svg" width="128" height="128" viewBox="0 0 128 128" fill="none"><path d="M63.9998 123.477C96.8482 123.477 123.477 96.8485 123.477 64C123.477 31.1516 96.8482 4.52271 63.9998 4.52271C31.1514 4.52271 4.52246 31.1516 4.52246 64C4.52246 96.8485 31.1514 123.477 63.9998 123.477Z" fill="white"/><path d="M86.6131 60.3307C87.0398 60.0747 87.4665 59.8187 87.8932 59.4774C88.3198 59.136 88.7465 58.7947 89.1731 58.3681C89.5998 58.0267 89.9412 57.6 90.2825 57.2587C90.6238 56.9174 90.8798 56.6614 91.0505 56.4054C91.2211 56.2347 91.3918 56.1494 91.6478 56.1494C92.0745 56.1494 92.3305 56.3201 92.5865 56.5761C92.8425 56.8321 92.9278 57.1734 92.9278 57.5147C92.9278 57.7707 92.8425 57.9414 92.7571 58.112C92.5011 58.4534 92.1598 58.88 91.7331 59.392C91.3065 59.8187 90.7945 60.3307 90.1971 60.7574C89.5998 61.184 89.0025 61.6961 88.3198 62.2081C87.6371 62.7201 86.9545 63.1467 86.1865 63.5734C85.7598 68.1814 84.8211 72.1921 83.2851 75.6054C81.7491 79.0187 79.7865 81.8347 77.4825 84.1387C75.0932 86.4427 72.4478 88.1494 69.3758 89.2587C66.3038 90.368 63.0612 90.9654 59.6478 90.9654C57.7705 90.9654 55.8932 90.7947 54.0158 90.3681C52.1385 89.9414 50.2612 89.344 48.5545 88.4907C46.8478 87.6374 45.1412 86.6134 43.6905 85.3334C42.1545 84.0534 40.8745 82.5174 39.7651 80.8107C38.6558 79.0187 37.8025 77.056 37.1198 74.752C36.4372 72.5334 36.1812 69.9734 36.1812 67.1574C36.1812 64.3414 36.5225 61.7814 37.2051 59.3067C37.8878 56.8321 38.8265 54.5281 40.1065 52.3947C41.3865 50.2614 43.0078 48.2987 44.8851 46.592C46.7625 44.8854 48.9811 43.4347 51.4558 42.1547C51.6265 42.0694 51.8825 41.9841 52.0532 41.9841C52.3945 41.9841 52.6505 42.0694 52.9918 42.3254C53.2478 42.5814 53.4185 42.8374 53.4185 43.2641C53.4185 43.5201 53.3331 43.7761 53.1625 43.9467C52.9918 44.2027 52.8211 44.3734 52.5651 44.4587C52.3945 44.544 51.9678 44.7147 51.2851 45.1414C50.5171 45.4827 49.6638 46.08 48.6398 46.7627C47.6158 47.5307 46.5065 48.4694 45.3972 49.5787C44.2025 50.7734 43.1785 52.1387 42.2398 53.7601C41.3012 55.3814 40.4478 57.3441 39.8505 59.5627C39.1678 61.7814 38.9118 64.2561 38.9118 67.0721C38.9118 69.632 39.1678 71.9361 39.7651 73.8987C40.2771 75.8614 41.0452 77.5681 41.9838 79.0187C42.9225 80.4694 43.9465 81.7494 45.1412 82.7734C46.3358 83.7974 47.5305 84.6507 48.8105 85.3334C50.0905 86.0161 51.2851 86.5281 52.5651 86.9547C53.7598 87.3814 54.9545 87.6374 55.9785 87.8081C57.0025 87.9787 57.8558 88.1494 58.6238 88.1494C59.3065 88.2347 59.8185 88.2347 60.0745 88.2347C62.9758 88.2347 65.7065 87.8081 68.3518 86.8694C70.9971 85.9307 73.3865 84.5654 75.4345 82.6881C77.4825 80.8107 79.2745 78.3361 80.7251 75.4347C82.1758 72.5334 83.1145 69.0347 83.6265 64.9387C82.0905 65.6214 80.5545 66.1334 78.8478 66.5601C77.1412 66.9867 75.5198 67.1574 73.7278 67.1574C71.2532 67.1574 68.8638 66.816 66.5598 66.2187C64.2558 65.536 62.1225 64.5974 60.3305 63.3174C58.5385 62.0374 57.0878 60.4161 55.9785 58.4534C54.8691 56.4907 54.3572 54.2721 54.3572 51.6267C54.3572 49.4934 54.6985 47.6161 55.4665 45.9947C56.2345 44.2881 57.1732 42.9227 58.4531 41.7281C59.7332 40.5334 61.1838 39.6801 62.8051 38.9974C64.4265 38.4001 66.2185 38.0587 68.0105 38.0587C69.4611 38.0587 70.9972 38.2294 72.5331 38.5707C74.0691 38.9121 75.5198 39.424 76.8851 40.192C78.2505 40.96 79.5305 41.8134 80.8105 43.0081C82.0051 44.1174 83.0292 45.4827 83.9678 47.0187C84.9065 48.5547 85.5891 50.3467 86.1012 52.3947C86.6132 54.3574 86.8692 56.6614 86.8692 59.1361V60.3307H86.6131ZM83.8825 61.952C83.9678 61.0134 83.9678 60.1601 83.9678 59.2214C83.9678 55.8934 83.4558 53.0774 82.5171 50.6881C81.5785 48.2987 80.2985 46.4214 78.7625 44.8854C77.2265 43.4347 75.4345 42.3254 73.5571 41.6427C71.5945 40.96 69.7172 40.6187 67.7545 40.6187C66.2185 40.6187 64.8531 40.8747 63.5732 41.3867C62.2931 41.8987 61.0985 42.5814 60.0745 43.5201C59.0505 44.4587 58.2825 45.5681 57.7705 46.9334C57.1731 48.2987 56.9171 49.8347 56.9171 51.6267C56.9171 53.3334 57.2585 54.9547 58.0265 56.4907C58.7092 58.0267 59.8185 59.3921 61.1838 60.5867C62.5491 61.7814 64.3412 62.7201 66.3892 63.4881C68.4372 64.1707 70.9118 64.5121 73.6425 64.5121C75.5198 64.5121 77.3118 64.2561 79.0185 63.8294C80.7251 63.4027 82.3465 62.72 83.8825 61.952Z" fill="#26AC6F"/></svg>