<svg width="128" height="128" viewBox="0 0 128 128" fill="none" xmlns="http://www.w3.org/2000/svg">
<path d="M63.7119 125.889C97.8405 125.889 125.507 98.2218 125.507 64.0932C125.507 29.9645 97.8405 2.29779 63.7119 2.29779C29.5832 2.29779 1.9165 29.9645 1.9165 64.0932C1.9165 98.2218 29.5832 125.889 63.7119 125.889Z" fill="white"/>
<path d="M63.83 44.1866C65.6659 44.1866 67.1542 43.2362 67.1542 42.0637C67.1542 40.8913 65.6659 39.9408 63.83 39.9408C61.9941 39.9408 60.5059 40.8913 60.5059 42.0637C60.5059 43.2362 61.9941 44.1866 63.83 44.1866Z" fill="#A79DCB"/>
<path d="M83.8084 45.2781H44.9552C44.1092 45.2781 43.4233 45.9639 43.4233 46.8099V96.2023C43.4233 97.0484 44.1092 97.7342 44.9552 97.7342H83.8084C84.6544 97.7342 85.3402 97.0484 85.3402 96.2023V46.8099C85.3402 45.9639 84.6544 45.2781 83.8084 45.2781Z" fill="#FFFFEB"/>
<path d="M75.0573 42.7722H52.5581V51.1502H75.0573V42.7722Z" fill="#A79DCB"/>
<path d="M84.5079 96.3274C90.1918 96.3274 94.7995 91.7197 94.7995 86.0359C94.7995 80.352 90.1918 75.7443 84.5079 75.7443C78.824 75.7443 74.2163 80.352 74.2163 86.0359C74.2163 91.7197 78.824 96.3274 84.5079 96.3274Z" fill="#A79DCB"/>
<path d="M84.5191 75.106C84.4112 75.1062 84.3044 75.0851 84.2048 75.0439C84.1051 75.0027 84.0145 74.9422 83.9383 74.866C83.862 74.7897 83.8016 74.6992 83.7604 74.5995C83.7192 74.4998 83.6981 74.393 83.6983 74.2852V47.6512C83.6976 46.9986 83.4381 46.373 82.9766 45.9116C82.5152 45.4502 81.8896 45.1906 81.2371 45.19H75.3815C75.2711 45.1943 75.1609 45.1763 75.0576 45.1371C74.9543 45.0978 74.86 45.0381 74.7803 44.9615C74.7006 44.8849 74.6372 44.793 74.5939 44.6914C74.5506 44.5897 74.5283 44.4803 74.5283 44.3698C74.5283 44.2593 74.5506 44.1499 74.5939 44.0482C74.6372 43.9465 74.7006 43.8546 74.7803 43.778C74.86 43.7014 74.9543 43.6417 75.0576 43.6025C75.1609 43.5632 75.2711 43.5452 75.3815 43.5496H81.2371C82.3249 43.5506 83.3679 43.9832 84.1371 44.7524C84.9063 45.5216 85.3389 46.5646 85.3399 47.6524V74.2865C85.3399 74.3942 85.3187 74.5009 85.2774 74.6004C85.2361 74.6999 85.1757 74.7903 85.0994 74.8664C85.0232 74.9425 84.9327 75.0029 84.8331 75.044C84.7335 75.0851 84.6268 75.1062 84.5191 75.106Z" fill="#3F1C89"/>
<path d="M84.5193 97.1253H46.2112C45.1234 97.1243 44.0804 96.6917 43.3112 95.9225C42.542 95.1533 42.1094 94.1103 42.1084 93.0224V47.6512C42.1094 46.5633 42.542 45.5204 43.3112 44.7511C44.0804 43.9819 45.1234 43.5494 46.2112 43.5483H52.0668C52.1772 43.544 52.2874 43.562 52.3907 43.6012C52.494 43.6405 52.5883 43.7002 52.668 43.7768C52.7477 43.8534 52.8111 43.9453 52.8544 44.0469C52.8977 44.1486 52.92 44.258 52.92 44.3685C52.92 44.479 52.8977 44.5884 52.8544 44.6901C52.8111 44.7918 52.7477 44.8837 52.668 44.9603C52.5883 45.0369 52.494 45.0966 52.3907 45.1358C52.2874 45.1751 52.1772 45.1931 52.0668 45.1887H46.2112C45.5587 45.1894 44.9331 45.4489 44.4717 45.9103C44.0102 46.3717 43.7507 46.9974 43.75 47.6499V93.0224C43.75 93.6754 44.0093 94.3017 44.4708 94.7637C44.9322 95.2256 45.5583 95.4855 46.2112 95.4862H84.5193C84.7313 95.4945 84.9317 95.5846 85.0787 95.7375C85.2257 95.8904 85.3078 96.0943 85.3078 96.3064C85.3078 96.5185 85.2257 96.7223 85.0787 96.8752C84.9317 97.0281 84.7313 97.1182 84.5193 97.1265V97.1253Z" fill="#3F1C89"/>
<path d="M75.3819 51.4081H52.063C51.9552 51.4082 51.8484 51.3871 51.7487 51.3459C51.649 51.3048 51.5585 51.2443 51.4822 51.168C51.406 51.0918 51.3455 51.0012 51.3043 50.9016C51.2631 50.8019 51.242 50.6951 51.2422 50.5873V42.2105C51.242 42.1027 51.2631 41.9959 51.3043 41.8962C51.3455 41.7965 51.406 41.706 51.4822 41.6297C51.5585 41.5535 51.649 41.493 51.7487 41.4518C51.8484 41.4107 51.9552 41.3895 52.063 41.3897H59.467C59.6586 40.4001 60.1887 39.5081 60.9662 38.8667C61.7437 38.2253 62.7202 37.8745 63.7282 37.8745C64.7361 37.8745 65.7126 38.2253 66.4901 38.8667C67.2677 39.5081 67.7977 40.4001 67.9893 41.3897H75.3933C75.5012 41.3895 75.608 41.4107 75.7077 41.4518C75.8073 41.493 75.8979 41.5535 75.9741 41.6297C76.0504 41.706 76.1108 41.7965 76.152 41.8962C76.1932 41.9959 76.2143 42.1027 76.2142 42.2105V50.5885C76.2142 50.6972 76.1926 50.8049 76.1506 50.9051C76.1086 51.0054 76.0471 51.0963 75.9696 51.1726C75.8922 51.2489 75.8003 51.309 75.6994 51.3494C75.5985 51.3898 75.4905 51.4098 75.3819 51.4081ZM52.8826 49.7677H74.5623V43.0301H67.2413C67.1334 43.0302 67.0266 43.0091 66.9269 42.9679C66.8273 42.9267 66.7367 42.8663 66.6605 42.79C66.5842 42.7138 66.5238 42.6232 66.4826 42.5236C66.4414 42.4239 66.4203 42.3171 66.4204 42.2092C66.4204 41.4937 66.1362 40.8075 65.6302 40.3015C65.1242 39.7955 64.438 39.5113 63.7224 39.5113C63.0069 39.5113 62.3206 39.7955 61.8147 40.3015C61.3087 40.8075 61.0244 41.4937 61.0244 42.2092C61.0246 42.3171 61.0035 42.4239 60.9623 42.5236C60.9211 42.6232 60.8606 42.7138 60.7844 42.79C60.7081 42.8663 60.6176 42.9267 60.5179 42.9679C60.4183 43.0091 60.3114 43.0302 60.2036 43.0301H52.8826V49.7677Z" fill="#3F1C89"/>
<path d="M74.8699 63.4319H52.5749C52.4644 63.4363 52.3543 63.4183 52.251 63.379C52.1476 63.3398 52.0533 63.2801 51.9737 63.2035C51.894 63.1269 51.8306 63.035 51.7873 62.9333C51.744 62.8316 51.7217 62.7223 51.7217 62.6117C51.7217 62.5012 51.744 62.3919 51.7873 62.2902C51.8306 62.1885 51.894 62.0966 51.9737 62.02C52.0533 61.9434 52.1476 61.8837 52.251 61.8445C52.3543 61.8052 52.4644 61.7872 52.5749 61.7916H74.8699C74.9803 61.7872 75.0905 61.8052 75.1938 61.8445C75.2971 61.8837 75.3914 61.9434 75.4711 62.02C75.5508 62.0966 75.6142 62.1885 75.6575 62.2902C75.7008 62.3919 75.7231 62.5012 75.7231 62.6117C75.7231 62.7223 75.7008 62.8316 75.6575 62.9333C75.6142 63.035 75.5508 63.1269 75.4711 63.2035C75.3914 63.2801 75.2971 63.3398 75.1938 63.379C75.0905 63.4183 74.9803 63.4363 74.8699 63.4319Z" fill="#3F1C89"/>
<path d="M74.8699 73.0852H52.5749C52.4644 73.0896 52.3543 73.0716 52.251 73.0323C52.1476 72.9931 52.0533 72.9334 51.9737 72.8568C51.894 72.7802 51.8306 72.6883 51.7873 72.5866C51.744 72.4849 51.7217 72.3755 51.7217 72.265C51.7217 72.1545 51.744 72.0451 51.7873 71.9435C51.8306 71.8418 51.894 71.7499 51.9737 71.6733C52.0533 71.5967 52.1476 71.537 52.251 71.4977C52.3543 71.4585 52.4644 71.4405 52.5749 71.4449H74.8699C74.9803 71.4405 75.0905 71.4585 75.1938 71.4977C75.2971 71.537 75.3914 71.5967 75.4711 71.6733C75.5508 71.7499 75.6142 71.8418 75.6575 71.9435C75.7008 72.0451 75.7231 72.1545 75.7231 72.265C75.7231 72.3755 75.7008 72.4849 75.6575 72.5866C75.6142 72.6883 75.5508 72.7802 75.4711 72.8568C75.3914 72.9334 75.2971 72.9931 75.1938 73.0323C75.0905 73.0716 74.9803 73.0896 74.8699 73.0852Z" fill="#3F1C89"/>
<path d="M68.4373 82.7372H52.5749C52.4644 82.7416 52.3543 82.7236 52.251 82.6844C52.1476 82.6451 52.0533 82.5854 51.9737 82.5088C51.894 82.4322 51.8306 82.3403 51.7873 82.2386C51.744 82.137 51.7217 82.0276 51.7217 81.9171C51.7217 81.8066 51.744 81.6972 51.7873 81.5955C51.8306 81.4938 51.894 81.4019 51.9737 81.3253C52.0533 81.2487 52.1476 81.189 52.251 81.1498C52.3543 81.1105 52.4644 81.0925 52.5749 81.0969H68.4373C68.6492 81.1053 68.8497 81.1953 68.9967 81.3482C69.1437 81.5011 69.2258 81.705 69.2258 81.9171C69.2258 82.1292 69.1437 82.333 68.9967 82.4859C68.8497 82.6388 68.6492 82.7289 68.4373 82.7372Z" fill="#3F1C89"/>
<path d="M84.5216 97.1253C82.2007 97.126 79.9316 96.4385 78.0015 95.1496C76.0713 93.8607 74.5667 92.0283 73.678 89.8843C72.7893 87.7402 72.5564 85.3808 73.0087 83.1043C73.461 80.8279 74.5783 78.7367 76.2192 77.0953C77.8601 75.4539 79.9509 74.336 82.2272 73.8829C84.5035 73.4298 86.863 73.662 89.0073 74.55C91.1517 75.438 92.9845 76.942 94.2741 78.8717C95.5636 80.8014 96.2519 83.0703 96.2519 85.3912C96.2492 88.5018 95.0126 91.4842 92.8134 93.6841C90.6143 95.884 87.6322 97.1215 84.5216 97.1253ZM84.5216 75.2962C82.5253 75.2962 80.5738 75.8882 78.9139 76.9973C77.2539 78.1064 75.9602 79.6829 75.1962 81.5272C74.4323 83.3716 74.2324 85.4011 74.6219 87.3591C75.0113 89.3171 75.9727 91.1156 77.3843 92.5272C78.7959 93.9389 80.5944 94.9002 82.5524 95.2897C84.5104 95.6791 86.5399 95.4793 88.3843 94.7153C90.2287 93.9513 91.8051 92.6576 92.9142 90.9977C94.0233 89.3378 94.6153 87.3863 94.6153 85.3899C94.6113 82.7143 93.5465 80.1494 91.6544 78.2575C89.7623 76.3657 87.1973 75.3012 84.5216 75.2975V75.2962Z" fill="#3F1C89"/>
<path d="M83.3795 88.6656C83.2719 88.6656 83.1653 88.6444 83.0658 88.6032C82.9664 88.562 82.876 88.5017 82.7999 88.4256L80.1779 85.8023C80.0309 85.647 79.9503 85.4405 79.9532 85.2267C79.9561 85.0129 80.0423 84.8087 80.1935 84.6575C80.3447 84.5063 80.5489 84.4201 80.7627 84.4172C80.9765 84.4143 81.183 84.4949 81.3383 84.6419L83.3808 86.6844L87.7095 82.3543C87.8648 82.2073 88.0713 82.1267 88.2851 82.1296C88.4989 82.1325 88.7031 82.2187 88.8543 82.3699C89.0055 82.5211 89.0917 82.7253 89.0946 82.9391C89.0975 83.1529 89.0169 83.3594 88.8699 83.5147L83.9616 88.4243C83.8853 88.5009 83.7946 88.5617 83.6947 88.6031C83.5947 88.6445 83.4876 88.6658 83.3795 88.6656Z" fill="#FFFFEB"/>
</svg>
