<svg width="127" height="128" viewBox="0 0 127 128" fill="none" xmlns="http://www.w3.org/2000/svg">
<path d="M63.4993 125.86C97.5143 125.86 125.089 98.1938 125.089 64.0651C125.089 29.9365 97.5143 2.26971 63.4993 2.26971C29.4843 2.26971 1.90967 29.9365 1.90967 64.0651C1.90967 98.1938 29.4843 125.86 63.4993 125.86Z" fill="white"/>
<path d="M87.0256 91.2978H39.9504C38.564 91.2961 37.2349 90.7428 36.2546 89.7592C35.2743 88.7757 34.7229 87.4422 34.7212 86.0512V74.4639C34.7229 73.0729 35.2743 71.7394 36.2546 70.7558C37.2349 69.7723 38.564 69.219 39.9504 69.2173H87.0256C88.4119 69.219 89.741 69.7723 90.7213 70.7558C91.7016 71.7394 92.253 73.0729 92.2547 74.4639V86.0512C92.253 87.4422 91.7016 88.7757 90.7213 89.7592C89.741 90.7428 88.4119 91.2961 87.0256 91.2978ZM39.9504 72.715C39.4883 72.7157 39.0453 72.9002 38.7186 73.228C38.3918 73.5558 38.208 74.0003 38.2073 74.4639V86.0512C38.208 86.5148 38.3918 86.9593 38.7186 87.2871C39.0453 87.6149 39.4883 87.7994 39.9504 87.8001H87.0256C87.4876 87.7994 87.9306 87.6149 88.2574 87.2871C88.5841 86.9593 88.768 86.5148 88.7686 86.0512V74.4639C88.768 74.0003 88.5841 73.5558 88.2574 73.228C87.9306 72.9002 87.4876 72.7157 87.0256 72.715H39.9504ZM70.1663 80.9501C70.1663 80.4451 70.3155 79.9515 70.5951 79.5317C70.8747 79.1118 71.2721 78.7846 71.7371 78.5913C72.2021 78.3981 72.7137 78.3475 73.2073 78.446C73.7009 78.5445 74.1543 78.7877 74.5102 79.1448C74.8661 79.5018 75.1084 79.9567 75.2066 80.452C75.3048 80.9472 75.2544 81.4606 75.0618 81.9271C74.8692 82.3936 74.543 82.7924 74.1246 83.0729C73.7061 83.3534 73.2142 83.5032 72.7109 83.5032C72.0371 83.5015 71.3915 83.2318 70.9157 82.7531C70.4399 82.2745 70.1726 81.6261 70.1726 80.9501H70.1663ZM81.4249 83.5032C81.9282 83.5032 82.4201 83.3534 82.8386 83.0729C83.2571 82.7924 83.5832 82.3936 83.7758 81.9271C83.9684 81.4606 84.0188 80.9472 83.9206 80.452C83.8224 79.9567 83.5801 79.5018 83.2242 79.1448C82.8683 78.7877 82.4149 78.5445 81.9213 78.446C81.4277 78.3475 80.9161 78.3981 80.4511 78.5913C79.9861 78.7846 79.5887 79.1118 79.3091 79.5317C79.0295 79.9515 78.8803 80.4451 78.8803 80.9501C78.8806 81.2854 78.9468 81.6173 79.075 81.9269C79.2031 82.2365 79.3909 82.5178 79.6274 82.7547C79.8639 82.9915 80.1446 83.1793 80.4535 83.3073C80.7623 83.4353 81.0933 83.501 81.4274 83.5006L81.4249 83.5032ZM63.9943 83.5032C64.4976 83.5032 64.9896 83.3534 65.4081 83.0729C65.8265 82.7924 66.1527 82.3936 66.3452 81.9271C66.5378 81.4606 66.5882 80.9472 66.4901 80.452C66.3919 79.9567 66.1495 79.5018 65.7936 79.1448C65.4378 78.7877 64.9844 78.5445 64.4908 78.446C63.9972 78.3475 63.4855 78.3981 63.0206 78.5913C62.5556 78.7846 62.1582 79.1118 61.8786 79.5317C61.599 79.9515 61.4497 80.4451 61.4497 80.9501C61.4501 81.2854 61.5162 81.6173 61.6444 81.9269C61.7726 82.2365 61.9603 82.5178 62.1968 82.7547C62.4334 82.9915 62.7141 83.1793 63.0229 83.3073C63.3318 83.4353 63.6627 83.501 63.9969 83.5006L63.9943 83.5032ZM76.6309 56.1466L64.4396 66.4574L52.5283 56.1326L54.8732 53.4123L62.7971 60.284V41.1229H66.3825V60.1116L74.3216 53.3982L76.6309 56.1466Z" fill="#FE680C"/>
</svg>
