<svg width="124" height="124" viewBox="0 0 124 124" fill="none" xmlns="http://www.w3.org/2000/svg">
<path d="M61.5348 123.07C94.6636 123.07 121.52 96.2138 121.52 63.085C121.52 29.9562 94.6636 3.10001 61.5348 3.10001C28.406 3.10001 1.5498 29.9562 1.5498 63.085C1.5498 96.2138 28.406 123.07 61.5348 123.07Z" fill="white"/>
<path opacity="0.38" d="M43.0898 85.715L82.7698 38.285L109.12 87.575L94.0849 104.315L43.0898 85.715Z" fill="url(#paint0_linear)"/>
<path d="M92.0698 44.175L92.5348 94.24L40.2998 93.62V28.52H77.0348" fill="white"/>
<path d="M47.1201 62.62C47.1201 62.62 65.7201 38.595 85.0951 62.62" stroke="#1733BD" stroke-width="1.5" stroke-linecap="round" stroke-linejoin="round"/>
<path d="M85.0951 62.62C65.7201 86.645 47.1201 62.62 47.1201 62.62" stroke="#1733BD" stroke-width="1.5" stroke-miterlimit="10"/>
<path d="M66.0303 67.115C68.7696 67.115 70.9903 64.8943 70.9903 62.155C70.9903 59.4157 68.7696 57.195 66.0303 57.195C63.291 57.195 61.0703 59.4157 61.0703 62.155C61.0703 64.8943 63.291 67.115 66.0303 67.115Z" fill="#F47373"/>
<path d="M75.6396 28.52L76.1046 43.4L91.2946 43.865L75.6396 28.52Z" fill="#F47373"/>
<path d="M39.3699 74.865C38.9049 74.865 38.4399 74.4 38.4399 73.935V73.78V31.775C38.2849 28.985 40.4549 26.815 43.0899 26.815C43.2449 26.815 43.2449 26.815 43.3999 26.815H75.4849C75.9499 26.66 76.4149 27.125 76.5699 27.59V27.745C76.5699 28.21 76.1049 28.83 75.4849 28.83H43.3999C41.6949 28.83 40.455 30.07 40.455 31.62C40.455 31.62 40.455 31.62 40.455 31.775V73.78C40.455 74.245 39.9899 74.865 39.3699 74.865Z" fill="#1733BD"/>
<path d="M91.6049 45.105H75.4849C75.0199 45.26 74.3999 44.64 74.3999 44.175V28.21C74.3999 27.745 74.8649 27.125 75.4849 27.125C76.1049 27.125 76.4149 27.59 76.4149 28.055V28.21V43.245H91.6049C92.0699 43.245 92.6899 43.71 92.6899 44.33C92.6899 44.795 92.2249 45.26 91.9149 45.26C91.6049 45.105 91.6049 45.105 91.6049 45.105Z" fill="#1733BD"/>
<path d="M91.6051 45.26C91.2951 45.26 91.1401 45.105 90.8301 44.95L74.7101 28.52C74.2451 28.055 74.2451 27.435 74.7101 27.125C75.1751 26.66 75.7951 26.66 76.1051 27.125L92.2251 43.71C92.6901 44.175 92.6901 44.795 92.2251 45.105C92.0701 45.105 91.9151 45.26 91.6051 45.26Z" fill="#1733BD"/>
<path d="M87.7299 94.24H43.3999C40.6099 94.24 38.4399 92.07 38.4399 89.28V75.02C38.4399 74.555 38.9049 71.3 39.5249 71.3C39.9899 71.3 40.6099 74.245 40.6099 75.02V89.28C40.6099 90.83 41.8499 92.225 43.5549 92.225H87.8849C87.8849 92.225 90.8299 90.985 90.9849 89.28V44.795C90.9849 44.33 91.4499 43.865 91.7599 43.71H91.9149C92.3799 43.71 92.9999 44.175 92.9999 44.795V89.28C92.8449 91.915 87.7299 94.24 87.7299 94.24Z" fill="#1733BD"/>
<path d="M90.21 98.27C94.4902 98.27 97.96 94.8002 97.96 90.52C97.96 86.2398 94.4902 82.77 90.21 82.77C85.9298 82.77 82.46 86.2398 82.46 90.52C82.46 94.8002 85.9298 98.27 90.21 98.27Z" fill="#1733BD"/>
<path d="M90.2095 85.715V92.07" stroke="#F47373" stroke-width="0.75" stroke-linecap="round" stroke-linejoin="round"/>
<path d="M92.5345 90.21L90.2095 92.07" stroke="#F47373" stroke-width="0.75" stroke-linecap="round" stroke-linejoin="round"/>
<path d="M95.1697 91.45V93.31C95.1697 94.395 94.2397 95.325 93.1547 95.325H87.1097C86.0247 95.325 85.0947 94.395 85.0947 93.31V91.45" stroke="#F47373" stroke-width="0.75" stroke-linecap="round" stroke-linejoin="round"/>
<path d="M88.0396 90.21L90.2096 92.07" stroke="#F47373" stroke-width="0.75" stroke-linecap="round" stroke-linejoin="round"/>
<defs>
<linearGradient id="paint0_linear" x1="56.2222" y1="56.8002" x2="149.351" y2="129.869" gradientUnits="userSpaceOnUse">
<stop stop-color="white" stop-opacity="0.5"/>
<stop offset="0.00827113" stop-color="#F2F2F2" stop-opacity="0.4912"/>
<stop offset="0.0429871" stop-color="#C0C0C0" stop-opacity="0.4543"/>
<stop offset="0.0802598" stop-color="#929292" stop-opacity="0.4146"/>
<stop offset="0.1193" stop-color="#6B6B6B" stop-opacity="0.3731"/>
<stop offset="0.1605" stop-color="#4A4A4A" stop-opacity="0.3293"/>
<stop offset="0.2044" stop-color="#2F2F2F" stop-opacity="0.2826"/>
<stop offset="0.2521" stop-color="#1A1A1A" stop-opacity="0.2318"/>
<stop offset="0.3055" stop-color="#0B0B0B" stop-opacity="0.175"/>
<stop offset="0.3691" stop-color="#030303" stop-opacity="0.1073"/>
<stop offset="0.47" stop-opacity="0"/>
</linearGradient>
</defs>
</svg>
