<?xml version="1.0" encoding="UTF-8"?>
<!-- Generator: Adobe Illustrator 21.1.0, SVG Export Plug-In . SVG Version: 6.00 Build 0)  -->
<svg version="1.1" id="Background" xmlns="http://www.w3.org/2000/svg" xmlns:xlink="http://www.w3.org/1999/xlink" x="0px" y="0px" viewBox="0 0 998.2 1002.7" style="enable-background:new 0 0 998.2 1002.7;" xml:space="preserve">
<style type="text/css">
	.st0{fill:#FFFFFF;}
	.st1{fill-rule:evenodd;clip-rule:evenodd;fill:#6DE132;}
</style>
<circle class="st0" cx="499.1" cy="501.4" r="484.1"/>
<path class="st1" d="M270.8,646.9c30.9,0,55.7-26,54.4-57.4l165.8-41.6l63.4,126.4c-40.1,32.1-17.8,98.1,33.8,98.1  c52,0,74.1-66.9,33.1-98.7l65.7-136.4c34.2,8.9,68-17.1,68-53.3c0-50.5-61.8-73.9-94.9-36.8l-26.7-15.9l9.7-81.1  c28-2.3,50-25.9,50-54.8c0-62-86.5-76-106-17.6H426.3c-12.8-64.3-107.8-55.1-107.8,10.9c0,20.2,10.8,37.9,26.9,47.5l-67.8,201  c-32.6-4.2-61.4,21.4-61.4,54.6C216.3,622.2,240.7,646.9,270.8,646.9L270.8,646.9z M649.1,466l-2.9,20.4l-20,5l4.4-36.5L649.1,466  L649.1,466z M610.1,442.8l-78.7-46.9l-65.9,53.1l36.9,73.6l101.1-25.4L610.1,442.8L610.1,442.8z M511.5,384l-98-58.4  c-2,2.3-4.3,4.4-6.7,6.3l48.8,97.2L511.5,384L511.5,384z M424.4,306.8l105.1,62.7l60.7-48.9c-3.2-6.3-5.2-13.4-5.8-20.9H426.3  C425.8,302.1,425.2,304.5,424.4,306.8L424.4,306.8z M549.4,381.3l63.5,37.8l8.6-71.5c-6.6-2.2-12.6-5.7-17.7-10.1L549.4,381.3  L549.4,381.3z M512.4,542.4l88.3-22.2l-17.1,142.3c-3.5,0.3-6.8,0.9-10.1,1.8L512.4,542.4L512.4,542.4z M438.2,443L305.7,549.7  c-2.3-2-4.8-3.8-7.5-5.3l67.8-201l21.4-1.5L438.2,443L438.2,443z M480.9,527.9l-32.7-65.1l-129,103.9c0.3,0.5,0.5,1,0.7,1.5  L480.9,527.9L480.9,527.9z M651.3,507.6l-27.9,7l-16.7,139.1l60.7-126C660.6,522.4,655,515.5,651.3,507.6L651.3,507.6z"/>
</svg>