<svg width="128" height="128" viewBox="0 0 128 128" fill="none" xmlns="http://www.w3.org/2000/svg">
<path d="M63.7119 125.889C97.8405 125.889 125.507 98.2218 125.507 64.0932C125.507 29.9645 97.8405 2.29779 63.7119 2.29779C29.5832 2.29779 1.9165 29.9645 1.9165 64.0932C1.9165 98.2218 29.5832 125.889 63.7119 125.889Z" fill="white"/>
<path d="M85.7142 40.0034H38.9106V73.5882H85.7142V40.0034Z" fill="#94FFD5"/>
<path d="M86.0933 76.4949H38.9106V87.9788H86.0933V76.4949Z" fill="#E2E2E2"/>
<path d="M37.5562 74.0567L51.6608 64.7327L59.2333 71.1691L73.2167 58.1483L86.0882 69.1483L86.0933 76.4949L38.1612 75.863" fill="#5FDEFF"/>
<path d="M86.0932 88.8481H38.1624C38.064 88.8482 37.9665 88.829 37.8755 88.7914C37.7845 88.7538 37.7018 88.6986 37.6322 88.629C37.5626 88.5594 37.5074 88.4767 37.4698 88.3857C37.4322 88.2947 37.4129 88.1972 37.4131 88.0987V40.1629C37.4129 40.0645 37.4322 39.9669 37.4698 39.876C37.5074 39.785 37.5626 39.7023 37.6322 39.6327C37.7018 39.5631 37.7845 39.5079 37.8755 39.4703C37.9665 39.4327 38.064 39.4134 38.1624 39.4136H86.0932C86.1916 39.4134 86.2891 39.4327 86.3801 39.4703C86.4711 39.5079 86.5538 39.5631 86.6234 39.6327C86.693 39.7023 86.7482 39.785 86.7858 39.876C86.8234 39.9669 86.8427 40.0645 86.8425 40.1629V88.0949C86.8432 88.1937 86.8243 88.2916 86.7869 88.383C86.7495 88.4745 86.6944 88.5576 86.6248 88.6276C86.5551 88.6976 86.4723 88.7532 86.381 88.791C86.2898 88.8288 86.1919 88.8482 86.0932 88.8481ZM38.9105 87.3456H85.3451V40.9122H38.9105V87.3456Z" fill="#514051"/>
<path d="M38.1691 74.3656C38.0112 74.3652 37.8574 74.315 37.7297 74.222C37.602 74.1291 37.507 73.9981 37.4581 73.8479C37.4093 73.6977 37.4091 73.5359 37.4577 73.3857C37.5063 73.2354 37.6012 73.1043 37.7287 73.0111L51.2921 63.1485C51.4352 63.0439 51.611 62.9937 51.7878 63.0068C51.9646 63.0199 52.131 63.0955 52.2572 63.22L58.7357 69.5849L72.6909 56.5922C72.8265 56.4658 73.0041 56.3942 73.1894 56.3911C73.3747 56.388 73.5546 56.4537 73.6943 56.5756L86.5875 67.8577C86.6664 67.9209 86.7318 67.9994 86.7796 68.0886C86.8274 68.1777 86.8567 68.2756 86.8656 68.3764C86.8746 68.4771 86.8631 68.5786 86.8317 68.6748C86.8004 68.771 86.75 68.8598 86.6834 68.9359C86.6168 69.0121 86.5355 69.074 86.4444 69.1179C86.3532 69.1617 86.2542 69.1867 86.1531 69.1913C86.0521 69.1959 85.9512 69.18 85.8564 69.1445C85.7617 69.109 85.6752 69.0547 85.602 68.9849L73.2194 58.147L59.2322 71.1691C59.0913 71.3009 58.9049 71.3731 58.712 71.3707C58.5191 71.3684 58.3346 71.2915 58.197 71.1563L51.6597 64.734L38.6019 74.2226C38.4761 74.3142 38.3248 74.3642 38.1691 74.3656Z" fill="#514051"/>
<path d="M86.0935 77.3591H38.1628C37.9695 77.3511 37.7869 77.2688 37.653 77.1292C37.5191 76.9897 37.4443 76.8038 37.4443 76.6104C37.4443 76.417 37.5191 76.2311 37.653 76.0916C37.7869 75.9521 37.9695 75.8697 38.1628 75.8617H86.0935C86.2867 75.8697 86.4694 75.9521 86.6033 76.0916C86.7372 76.2311 86.8119 76.417 86.8119 76.6104C86.8119 76.8038 86.7372 76.9897 86.6033 77.1292C86.4694 77.2688 86.2867 77.3511 86.0935 77.3591Z" fill="#514051"/>
<path d="M50.883 56.3917C53.6813 56.3917 55.9497 54.1233 55.9497 51.3251C55.9497 48.5269 53.6813 46.2585 50.883 46.2585C48.0848 46.2585 45.8164 48.5269 45.8164 51.3251C45.8164 54.1233 48.0848 56.3917 50.883 56.3917Z" fill="#FFFA86"/>
<path d="M87.2675 90.5612C92.6814 90.5612 97.0701 86.1724 97.0701 80.7586C97.0701 75.3447 92.6814 70.9559 87.2675 70.9559C81.8536 70.9559 77.4648 75.3447 77.4648 80.7586C77.4648 86.1724 81.8536 90.5612 87.2675 90.5612Z" fill="#514051"/>
<path d="M90.0136 85.5469H84.0763C83.5643 85.5463 83.0735 85.3423 82.7118 84.9799C82.3501 84.6175 82.1471 84.1263 82.1475 83.6142V81.8271C82.1475 81.7876 82.1631 81.7498 82.191 81.7219C82.2189 81.694 82.2567 81.6783 82.2962 81.6783C82.3356 81.6783 82.3734 81.694 82.4013 81.7219C82.4292 81.7498 82.4449 81.7876 82.4449 81.8271V83.6142C82.4452 84.0472 82.6174 84.4622 82.9235 84.7684C83.2296 85.0745 83.6447 85.2466 84.0776 85.2469H90.0149C90.4476 85.2463 90.8623 85.074 91.1682 84.7679C91.474 84.4618 91.646 84.0469 91.6463 83.6142V81.8271C91.6463 81.7876 91.662 81.7498 91.6899 81.7219C91.7178 81.694 91.7556 81.6783 91.795 81.6783C91.8345 81.6783 91.8723 81.694 91.9002 81.7219C91.9281 81.7498 91.9437 81.7876 91.9437 81.8271V83.6142C91.9439 83.8679 91.8941 84.1191 91.7972 84.3535C91.7003 84.5879 91.5582 84.8009 91.3789 84.9803C91.1997 85.1598 90.9869 85.3022 90.7526 85.3994C90.5184 85.4966 90.2672 85.5468 90.0136 85.5469V85.5469Z" stroke="#94FFD5" stroke-width="1.5" stroke-miterlimit="10"/>
<path d="M87.046 82.7513C87.0068 82.7513 86.9691 82.7357 86.9413 82.7079C86.9136 82.6801 86.8979 82.6425 86.8979 82.6032V75.8796C86.8979 75.8402 86.9136 75.8023 86.9415 75.7745C86.9694 75.7466 87.0072 75.7309 87.0467 75.7309C87.0861 75.7309 87.1239 75.7466 87.1518 75.7745C87.1797 75.8023 87.1954 75.8402 87.1954 75.8796V82.6032C87.1954 82.6228 87.1915 82.6421 87.184 82.6602C87.1765 82.6782 87.1655 82.6946 87.1516 82.7084C87.1377 82.7221 87.1212 82.733 87.1031 82.7404C87.085 82.7477 87.0656 82.7515 87.046 82.7513V82.7513Z" stroke="#94FFD5" stroke-width="1.5" stroke-miterlimit="10"/>
<path d="M89.7099 78.6918C89.6707 78.6918 89.633 78.6762 89.6053 78.6484L87.0457 76.0953L84.4926 78.6484C84.479 78.6627 84.4627 78.6742 84.4445 78.6821C84.4264 78.69 84.4069 78.6941 84.3872 78.6944C84.3674 78.6946 84.3478 78.6909 84.3296 78.6835C84.3113 78.676 84.2946 78.665 84.2807 78.651C84.2667 78.6371 84.2557 78.6204 84.2482 78.6021C84.2408 78.5839 84.2371 78.5643 84.2373 78.5445C84.2376 78.5248 84.2418 78.5053 84.2496 78.4872C84.2575 78.469 84.269 78.4527 84.2833 78.4391L86.9474 75.7749C86.9758 75.7484 87.0133 75.7336 87.0521 75.7336C87.091 75.7336 87.1284 75.7484 87.1568 75.7749L89.821 78.4391C89.8426 78.4596 89.8575 78.4862 89.8637 78.5154C89.8699 78.5446 89.8672 78.5749 89.8559 78.6025C89.8446 78.6301 89.8252 78.6536 89.8003 78.67C89.7754 78.6864 89.7461 78.6949 89.7163 78.6944L89.7099 78.6918Z" stroke="#94FFD5" stroke-width="1.5" stroke-miterlimit="10"/>
</svg>
