<?xml version="1.0" encoding="utf-8"?>
<!-- Generator: Adobe Illustrator 21.1.0, SVG Export Plug-In . SVG Version: 6.00 Build 0)  -->
<svg version="1.1" id="Calque_1" xmlns="http://www.w3.org/2000/svg" xmlns:xlink="http://www.w3.org/1999/xlink" x="0px" y="0px"
	 viewBox="0 0 100 100" style="enable-background:new 0 0 100 100;" xml:space="preserve">
<style type="text/css">
	.st0{fill:#004AFB;}
	.st1{fill:#00C4CC;}
	.st2{fill:#00FFE6;}
</style>
<path class="st0" d="M59.4,75.4l-9.3-26.9l-9.3,26.9c-1.8,5.2,1,10.8,6.1,12.6l0,0c1,0.4,2.1,0.5,3.1,0.5c1,0,2.1-0.2,3.1-0.5h0
	C58.5,86.2,61.2,80.6,59.4,75.4z"/>
<path class="st1" d="M47,87.9L47,87.9c5.2,1.8,10.8-1,12.6-6.1l19.9-57.9c1.8-5.2-1-10.8-6.1-12.6l0,0c-5.2-1.8-10.8,1-12.6,6.1
	L40.8,75.3C39.1,80.5,41.8,86.1,47,87.9z"/>
<path class="st1" d="M53.2,87.9L53.2,87.9c-5.2,1.8-10.8-1-12.6-6.1L20.7,23.9c-1.8-5.2,1-10.8,6.1-12.6l0,0
	c5.2-1.8,10.8,1,12.6,6.1l19.9,57.9C61.1,80.5,58.4,86.1,53.2,87.9z"/>
<path class="st2" d="M59.4,75.4l-9.3-26.9l-9.3,26.9c-1.8,5.2,1,10.8,6.1,12.6l0,0c1,0.4,2.1,0.5,3.1,0.5c1,0,2.1-0.2,3.1-0.5h0
	C58.5,86.2,61.2,80.6,59.4,75.4z"/>
</svg>
